<svg width="32" height="32" viewBox="0 0 32 32" fill="none" xmlns="http://www.w3.org/2000/svg">
<path d="M7.68091 25.8975C7.68091 25.8975 12.1106 23.9761 13.3762 22.6951C14.6418 21.4142 10.845 21.4142 10.845 15.0094C10.845 8.60461 15.9075 8.60461 15.9075 8.60461C15.9075 8.60461 20.9699 8.60461 20.9699 15.0094C20.9699 21.4142 17.1731 21.4142 18.4387 22.6951C19.7043 23.9761 24.134 25.8975 24.134 25.8975" stroke="#808080" stroke-opacity="0.7" stroke-width="2" stroke-linecap="round"/>
<path fill-rule="evenodd" clip-rule="evenodd" d="M15.9074 29.0999C22.8973 29.0999 28.5637 23.3649 28.5637 16.2904C28.5637 9.21584 22.8973 3.4808 15.9074 3.4808C8.91761 3.4808 3.25122 9.21584 3.25122 16.2904C3.25122 23.3649 8.91761 29.0999 15.9074 29.0999Z" stroke="#808080" stroke-opacity="0.7" stroke-width="2"/>
</svg>
