<svg width="16" height="16" viewBox="0 0 16 16" fill="none" xmlns="http://www.w3.org/2000/svg">
<path d="M7.86443 12.9273L9.70901 8.93076M6.94214 6.16389L2.94556 8.00847M5.71242 8.93076C5.71242 8.93076 4.81896 9.51679 4.17527 10.1605C3.56042 10.7753 2.94556 12.9273 2.94556 12.9273C2.94556 12.9273 5.09756 12.3125 5.71242 11.6976C6.32728 11.0828 6.94214 10.1605 6.94214 10.1605M5.71242 8.93076C5.71242 8.93076 6.38877 6.40984 7.86443 4.93418C9.70901 3.0896 12.7833 3.0896 12.7833 3.0896C12.7833 3.0896 12.7833 6.16389 10.9387 8.00847C9.86225 9.08495 6.94214 10.1605 6.94214 10.1605L5.71242 8.93076ZM10.3239 6.47132C10.3239 6.98069 9.91094 7.39361 9.40158 7.39361C8.89221 7.39361 8.47929 6.98069 8.47929 6.47132C8.47929 5.96196 8.89221 5.54903 9.40158 5.54903C9.91094 5.54903 10.3239 5.96196 10.3239 6.47132Z" stroke="#101112" stroke-width="0.737831"/>
</svg>
