<svg width="12" height="12" viewBox="0 0 12 12" fill="none" xmlns="http://www.w3.org/2000/svg">
<path d="M9.67464 0.404053C10.7783 0.404053 11.6729 1.29872 11.6729 2.40234V6.63176C11.6729 6.99867 11.5272 7.35055 11.2677 7.61L7.81141 11.0663C7.55197 11.3258 7.20009 11.4715 6.83318 11.4715H2.60376C1.50013 11.4715 0.605469 10.5769 0.605469 9.47322V2.40234C0.605469 1.29872 1.50013 0.404053 2.60376 0.404053H9.67464ZM9.67464 1.32634H2.60376C2.0095 1.32634 1.52776 1.80808 1.52776 2.40234V9.47322C1.52776 10.0675 2.0095 10.5492 2.60376 10.5492H6.75406V8.55094C6.75406 7.48537 7.58809 6.61459 8.63896 6.55581L8.75235 6.55264H10.7506V2.40234C10.7506 1.80808 10.2689 1.32634 9.67464 1.32634ZM10.0983 7.47493H8.75235C8.1878 7.47493 7.7248 7.90971 7.67992 8.46269L7.67635 8.55094V9.89686L10.0983 7.47493Z" fill="black"/>
</svg>
